<?xml version="1.0" encoding="utf-8"?>
<!-- Generator: Adobe Illustrator 16.0.4, SVG Export Plug-In . SVG Version: 6.00 Build 0)  -->
<!DOCTYPE svg PUBLIC "-//W3C//DTD SVG 1.1//EN" "http://www.w3.org/Graphics/SVG/1.1/DTD/svg11.dtd">
<svg version="1.1" id="Layer_1" xmlns="http://www.w3.org/2000/svg" xmlns:xlink="http://www.w3.org/1999/xlink" x="0px" y="0px"
	 width="250px" height="1000px" viewBox="-174.535 800.504 250 1000" enable-background="new -174.535 800.504 250 1000"
	 xml:space="preserve">
<rect x="29.546" y="1566.545" fill="#C6C6C6" width="35.957" height="17.955"/>
<rect x="31.5" y="1568.5" fill="#FFFFFF" width="2" height="2"/>
<rect x="34.5" y="1568.5" fill="#FFFFFF" width="2" height="2"/>
<rect x="37.5" y="1568.5" fill="#FFFFFF" width="2" height="2"/>
<rect x="40.5" y="1568.5" fill="#FFFFFF" width="2" height="2"/>
<rect x="43.5" y="1568.5" fill="#FFFFFF" width="2" height="2"/>
<rect x="46.5" y="1568.5" fill="#FFFFFF" width="2" height="2"/>
<rect x="49.5" y="1568.5" fill="#FFFFFF" width="2" height="2"/>
<rect x="52.5" y="1568.5" fill="#FFFFFF" width="2" height="2"/>
<rect x="55.5" y="1568.5" fill="#FFFFFF" width="2" height="2"/>
<rect x="58.5" y="1568.5" fill="#FFFFFF" width="2" height="2"/>
<rect x="61.5" y="1568.5" fill="#FFFFFF" width="2" height="2"/>
<rect x="31.5" y="1572.5" fill="#FFFFFF" width="2" height="2"/>
<rect x="34.5" y="1572.5" fill="#FFFFFF" width="2" height="2"/>
<rect x="37.5" y="1572.5" fill="#FFFFFF" width="2" height="2"/>
<rect x="40.5" y="1572.5" fill="#FFFFFF" width="2" height="2"/>
<rect x="43.5" y="1572.5" fill="#FFFFFF" width="2" height="2"/>
<rect x="46.5" y="1572.5" fill="#FFFFFF" width="2" height="2"/>
<rect x="49.5" y="1572.5" fill="#FFFFFF" width="2" height="2"/>
<rect x="52.5" y="1572.5" fill="#FFFFFF" width="2" height="2"/>
<rect x="55.5" y="1572.5" fill="#FFFFFF" width="2" height="2"/>
<rect x="58.5" y="1572.5" fill="#FFFFFF" width="2" height="2"/>
<rect x="61.5" y="1572.5" fill="#FFFFFF" width="2" height="2"/>
<rect x="31.5" y="1576.5" fill="#FFFFFF" width="4" height="2"/>
<rect x="59.5" y="1576.5" fill="#FFFFFF" width="4" height="2"/>
<rect x="37.5" y="1576.5" fill="#FFFFFF" width="2" height="2"/>
<rect x="31.5" y="1580.5" fill="#FFFFFF" width="6" height="2"/>
<rect x="59.5" y="1580.5" fill="#FFFFFF" width="4" height="2"/>
<rect x="39.5" y="1580.5" fill="#FFFFFF" width="18" height="2"/>
<rect x="40.5" y="1576.5" fill="#FFFFFF" width="2" height="2"/>
<rect x="43.5" y="1576.5" fill="#FFFFFF" width="2" height="2"/>
<rect x="46.5" y="1576.5" fill="#FFFFFF" width="2" height="2"/>
<rect x="49.5" y="1576.5" fill="#FFFFFF" width="2" height="2"/>
<rect x="52.5" y="1576.5" fill="#FFFFFF" width="2" height="2"/>
<rect x="55.5" y="1576.5" fill="#FFFFFF" width="2" height="2"/>
<polygon fill="#CF0000" points="-38.311,1015.151 -39.59,1013.871 -49.5,1023.781 -59.41,1013.871 -60.689,1015.151 
	-50.779,1025.062 -60.689,1034.971 -59.41,1036.241 -49.5,1026.341 -39.59,1036.241 -38.311,1034.971 -48.221,1025.062 "/>
<polygon fill="#CF0000" points="-38.311,1065.151 -39.59,1063.871 -49.5,1073.781 -59.41,1063.871 -60.689,1065.151 
	-50.779,1075.062 -60.689,1084.971 -59.41,1086.241 -49.5,1076.341 -39.59,1086.241 -38.311,1084.971 -48.221,1075.062 "/>
<path fill="#FFB200" d="M-41.5,1316.5v17.93l-6.99-4.049c-0.31-0.18-0.66-0.27-1-0.27c-0.34,0-0.689,0.09-1,0.27l-7,4.049v-17.93
	H-41.5 M-39.5,1314.5h-20v23l10-5.789l10,5.789V1314.5L-39.5,1314.5z"/>
<path fill="#8F8F8F" d="M-41.5,1366.5v17.93l-6.99-4.049c-0.31-0.18-0.66-0.27-1-0.27c-0.34,0-0.689,0.09-1,0.27l-7,4.049v-17.93
	H-41.5 M-39.5,1364.5h-20v23l10-5.789l10,5.789V1364.5L-39.5,1364.5z"/>
<g>
	<rect x="-59.5" y="1218.501" fill="#FFB200" width="2" height="2"/>
	<rect x="-59.5" y="1226.501" fill="#FFB200" width="2" height="2"/>
	<rect x="-59.5" y="1222.501" fill="#FFB200" width="2" height="2"/>
	<rect x="-59.5" y="1230.501" fill="#FFB200" width="2" height="2"/>
	<polygon fill="#FFB200" points="-57.04,1216.501 -41.04,1216.501 -39.5,1216.501 -39.5,1214.501 -59.5,1214.501 -59.5,1216.501 	
		"/>
	<rect x="-41.5" y="1218.501" fill="#FFB200" width="2" height="2"/>
	<path fill="#FFB200" d="M-48.55,1230.381c-0.31-0.18-0.601-0.27-0.95-0.27s-0.66,0.09-0.971,0.27l-9.029,5.26v1.86l10-5.79l10,5.79
		v-1.89L-48.55,1230.381z"/>
	<rect x="-41.5" y="1222.501" fill="#FFB200" width="2" height="2"/>
	<rect x="-41.5" y="1230.501" fill="#FFB200" width="2" height="2"/>
	<rect x="-41.5" y="1226.501" fill="#FFB200" width="2" height="2"/>
</g>
<g>
	<rect x="-59.5" y="1268.501" fill="#8F8F8F" width="2" height="2"/>
	<rect x="-59.5" y="1276.501" fill="#8F8F8F" width="2" height="2"/>
	<rect x="-59.5" y="1272.501" fill="#8F8F8F" width="2" height="2"/>
	<rect x="-59.5" y="1280.501" fill="#8F8F8F" width="2" height="2"/>
	<polygon fill="#8F8F8F" points="-57.04,1266.501 -41.04,1266.501 -39.5,1266.501 -39.5,1264.501 -59.5,1264.501 -59.5,1266.501 	
		"/>
	<rect x="-41.5" y="1268.501" fill="#8F8F8F" width="2" height="2"/>
	<path fill="#8F8F8F" d="M-48.55,1280.381c-0.31-0.18-0.601-0.27-0.95-0.27s-0.66,0.09-0.971,0.27l-9.029,5.26v1.86l10-5.79l10,5.79
		v-1.89L-48.55,1280.381z"/>
	<rect x="-41.5" y="1272.501" fill="#8F8F8F" width="2" height="2"/>
	<rect x="-41.5" y="1280.501" fill="#8F8F8F" width="2" height="2"/>
	<rect x="-41.5" y="1276.501" fill="#8F8F8F" width="2" height="2"/>
</g>
<rect x="-78.092" y="1224.778" transform="matrix(0.7059 -0.7083 0.7083 0.7059 -882.5669 325.3456)" fill="#FFB200" width="57.197" height="1.411"/>
<rect x="-78.109" y="1274.796" transform="matrix(0.7059 -0.7083 0.7083 0.7059 -918.0045 340.0487)" fill="#8F8F8F" width="57.199" height="1.41"/>
<g>
	<g>
		<path fill="#808080" d="M-79.471,837.501v5h-16v-27h7.9v22H-79.471z"/>
		<path fill="#808080" d="M-59.93,833.021c0,6.789-2.141,10.261-9.34,10.261c-7.211,0-9.351-3.47-9.351-10.261
			c0-6.899,2.14-10.029,9.351-10.029C-62.07,822.981-59.93,826.111-59.93,833.021z M-72.221,833.021c0,4.159,0.57,5.229,2.941,5.229
			c2.359,0,2.939-1.07,2.939-5.229c0-4.039-0.53-5-2.939-5C-71.641,828.021-72.221,828.971-72.221,833.021z"/>
		<path fill="#808080" d="M-43.74,842.481c-1.369,0.42-2.71,0.76-4.96,0.84c-5,0-9.92-0.722-9.92-10.34c0-7.521,2.63-9.99,9.88-9.99
			c2.141,0.04,3.36,0.3,4.881,0.72l-1.83,4.811c-0.761-0.189-1.561-0.421-3.011-0.421c-2.78,0-3.62,0.921-3.62,4.882
			c0,4.039,0.84,5.148,3.62,5.148c1.49,0,2.521-0.31,3.13-0.57L-43.74,842.481z"/>
		<path fill="#808080" d="M-35.75,829.771c0.73,0,1.16-0.391,2.109-1.841l2.681-4.43h7.101l-4.189,6.61
			c-0.5,0.8-1.932,1.608-2.932,2.068v0.23c1,0.42,2.58,1.1,3.121,2.17l4.08,7.93h-6.9l-3.279-6.438
			c-0.609-1.302-0.95-1.602-1.75-1.562l-0.262,0.15v7.84h-7v-27h7v14.31L-35.75,829.771z"/>
		<path fill="#808080" d="M-13.18,845.141c-1.221,3.552-3.391,6.03-7.36,6.03c-0.95,0-2.101-0.13-2.86-0.399l0.49-2.409
			c0.61,0.12,1.03,0.188,1.83,0.188c3.78,0,4.46-2.568,5.15-4.63l-7.24-20.42h3.32l5.608,16.9l5.15-16.9h3.399L-13.18,845.141z"/>
	</g>
	<path fill="#FFB200" d="M-136.94,829.051c0,11.142-2.4,14.53-11.79,14.53c-9.38,0-11.79-3.39-11.79-14.53
		c0-10.99,2.4-14.148,11.79-14.148S-136.94,818.061-136.94,829.051z M-153.414,829.064c0,6.464,0.745,8.316,4.685,8.316
		c3.912,0,4.694-1.844,4.694-8.316c0-6.286-0.782-7.953-4.694-7.953C-152.669,821.102-153.414,822.778-153.414,829.064z
		 M-127.86,829.771c0.73,0,1.1-0.391,2.06-1.841l2.63-4.43h7.1l-4.08,6.61c-0.5,0.8-1.82,1.608-2.82,2.068v0.23
		c1,0.42,2.47,1.1,3.01,2.17l3.96,7.92h-6.9l-3.28-6.44c-0.61-1.3-0.83-1.6-1.64-1.56l-0.15,0.16v7.84h-7v-27h7v14.31
		L-127.86,829.771z M-105.25,845.141c-1.22,3.552-3.39,6.03-7.36,6.03c-0.96,0-2.1-0.13-2.86-0.399l0.5-2.409
		c0.61,0.12,1.03,0.188,1.83,0.188c3.78,0,4.46-2.568,5.15-4.63l-7.26-20.42h3.32l5.61,16.9l5.15-16.9h3.4L-105.25,845.141z
		 M-162.548,820.157c0.203-0.708-0.208-1.449-0.916-1.653l-8.656-2.491c-0.708-0.204-1.45,0.208-1.663,0.916
		c-0.203,0.708,0.209,1.45,0.917,1.652l8.664,2.492c0.146,0.042,0.281,0.057,0.424,0.051
		C-163.222,821.112-162.708,820.729-162.548,820.157z M-160.628,814.121c0.477-0.564,0.417-1.406-0.148-1.883l-6.855-5.85
		c-0.564-0.486-1.405-0.416-1.883,0.148c-0.486,0.556-0.417,1.405,0.148,1.883l6.855,5.848c0.269,0.229,0.598,0.333,0.923,0.32
		C-161.244,814.576-160.886,814.419-160.628,814.121z M-154.958,811.462c0.668-0.312,0.955-1.11,0.643-1.778l-3.818-8.159
		c-0.312-0.669-1.109-0.953-1.778-0.642c-0.669,0.312-0.955,1.11-0.642,1.778l3.825,8.158c0.24,0.499,0.739,0.788,1.266,0.768
		C-155.308,811.59-155.126,811.545-154.958,811.462z"/>
</g>
<path fill="#FFB200" d="M-57.43,1127.501c-0.12-3,1.5-4.562,3.56-4.562c1.261,0,2.21,0.37,4.22,1.32c1.53,0.72,2.631,1,3.74,1
	c1.08,0,1.58-0.77,1.62-2.77h1.79c0.15,4-1.58,4.76-3.439,4.76c-1.201,0-2.271-0.24-4.34-1.2c-1.41-0.688-2.51-1.21-3.59-1.21
	s-1.74,0.65-1.79,2.65L-57.43,1127.501L-57.43,1127.501z M-49.5,1114.001c6.34,0,11.5,5.16,11.5,11.5s-5.16,11.5-11.5,11.5
	s-11.5-5.16-11.5-11.5S-55.84,1114.001-49.5,1114.001 M-49.5,1112.501c-7.18,0-13,5.82-13,13s5.82,13,13,13s13-5.82,13-13
	S-42.311,1112.501-49.5,1112.501L-49.5,1112.501z"/>
<path fill="#DDDDDD" d="M-57.43,1177.501c-0.12-3,1.5-4.562,3.56-4.562c1.261,0,2.21,0.37,4.22,1.32c1.53,0.72,2.631,1,3.74,1
	c1.08,0,1.58-0.77,1.62-2.77h1.79c0.15,4-1.58,4.76-3.439,4.76c-1.201,0-2.271-0.24-4.34-1.2c-1.41-0.688-2.51-1.21-3.59-1.21
	s-1.74,0.65-1.79,2.65L-57.43,1177.501L-57.43,1177.501z M-49.5,1164.001c6.34,0,11.5,5.16,11.5,11.5s-5.16,11.5-11.5,11.5
	s-11.5-5.16-11.5-11.5S-55.84,1164.001-49.5,1164.001 M-49.5,1162.501c-7.18,0-13,5.82-13,13s5.82,13,13,13s13-5.82,13-13
	S-42.311,1162.501-49.5,1162.501L-49.5,1162.501z"/>
<rect x="-78.104" y="1174.795" transform="matrix(0.7083 -0.7059 0.7059 0.7083 -844.2332 307.9418)" fill="#DDDDDD" width="57.199" height="1.41"/>
<rect x="-50.107" y="1146.787" transform="matrix(0.7057 -0.7085 0.7085 0.7057 -847.2861 310.8904)" fill="#DDDDDD" width="1.411" height="57.198"/>
<path fill="#8F8F8F" d="M63.5,1486.5h-26v-22h26V1486.5z M43.5,1466.5h-4v2h4V1466.5z M49.5,1466.5h-4v2h4V1466.5z M55.5,1466.5h-4
	v2h4V1466.5z M61.5,1466.5h-4v2h4V1466.5z M43.5,1482.5h-4v2h4V1482.5z M49.5,1482.5h-4v2h4V1482.5z M55.5,1482.5h-4v2h4V1482.5z
	 M61.5,1482.5h-4v2h4V1482.5z M48.5,1471.35v8.299l7.182-4.143L48.5,1471.35z"/>
<g>
	<path fill="#B4B4B4" d="M-39.5,1639.5c0,0.552-0.447,1-1,1h-40c-0.552,0-1-0.448-1-1v-28c0-0.553,0.448-1,1-1h40
		c0.553,0,1,0.447,1,1V1639.5z"/>
	<rect x="-79.5" y="1612.5" fill="#E2E2E2" width="34" height="26"/>
	<path fill="#B4B4B4" d="M-19.5,1639.5c0,0.552-0.447,1-1,1h-14c-0.553,0-1-0.448-1-1v-28c0-0.553,0.447-1,1-1h14
		c0.553,0,1,0.447,1,1V1639.5z"/>
	<rect x="-33.5" y="1612.5" fill="#E2E2E2" width="12" height="22"/>
	<circle fill="#E2E2E2" cx="-27.305" cy="1637.538" r="1.654"/>
	<circle fill="#E2E2E2" cx="-42.959" cy="1625.5" r="1.654"/>
	
		<rect x="-95.925" y="1624.519" transform="matrix(0.9227 -0.3856 0.3856 0.9227 -630.4562 106.7963)" fill="#8F8F8F" width="93.913" height="1.411"/>
	
		<rect x="-95.918" y="1624.579" transform="matrix(-0.9227 -0.3856 0.3856 -0.9227 -720.8326 3106.0059)" fill="#8F8F8F" width="93.915" height="1.411"/>
</g>
<rect x="19.229" y="1574.552" transform="matrix(0.7059 -0.7083 0.7083 0.7059 -1101.7037 497.1565)" fill="#CF0000" width="57.198" height="1.41"/>
<rect x="29.546" y="1516.545" fill="#C6C6C6" width="35.957" height="17.955"/>
<rect x="31.5" y="1518.5" fill="#FFFFFF" width="2" height="2"/>
<rect x="34.5" y="1518.5" fill="#FFFFFF" width="2" height="2"/>
<rect x="37.5" y="1518.5" fill="#FFFFFF" width="2" height="2"/>
<rect x="40.5" y="1518.5" fill="#FFFFFF" width="2" height="2"/>
<rect x="43.5" y="1518.5" fill="#FFFFFF" width="2" height="2"/>
<rect x="46.5" y="1518.5" fill="#FFFFFF" width="2" height="2"/>
<rect x="49.5" y="1518.5" fill="#FFFFFF" width="2" height="2"/>
<rect x="52.5" y="1518.5" fill="#FFFFFF" width="2" height="2"/>
<rect x="55.5" y="1518.5" fill="#FFFFFF" width="2" height="2"/>
<rect x="58.5" y="1518.5" fill="#FFFFFF" width="2" height="2"/>
<rect x="61.5" y="1518.5" fill="#FFFFFF" width="2" height="2"/>
<rect x="31.5" y="1522.5" fill="#FFFFFF" width="2" height="2"/>
<rect x="34.5" y="1522.5" fill="#FFFFFF" width="2" height="2"/>
<rect x="37.5" y="1522.5" fill="#FFFFFF" width="2" height="2"/>
<rect x="40.5" y="1522.5" fill="#FFFFFF" width="2" height="2"/>
<rect x="43.5" y="1522.5" fill="#FFFFFF" width="2" height="2"/>
<rect x="46.5" y="1522.5" fill="#FFFFFF" width="2" height="2"/>
<rect x="49.5" y="1522.5" fill="#FFFFFF" width="2" height="2"/>
<rect x="52.5" y="1522.5" fill="#FFFFFF" width="2" height="2"/>
<rect x="55.5" y="1522.5" fill="#FFFFFF" width="2" height="2"/>
<rect x="58.5" y="1522.5" fill="#FFFFFF" width="2" height="2"/>
<rect x="61.5" y="1522.5" fill="#FFFFFF" width="2" height="2"/>
<rect x="31.5" y="1526.5" fill="#FFFFFF" width="4" height="2"/>
<rect x="59.5" y="1526.5" fill="#FFFFFF" width="4" height="2"/>
<rect x="37.5" y="1526.5" fill="#FFFFFF" width="2" height="2"/>
<rect x="31.5" y="1530.5" fill="#FFFFFF" width="6" height="2"/>
<rect x="59.5" y="1530.5" fill="#FFFFFF" width="4" height="2"/>
<rect x="39.5" y="1530.5" fill="#FFFFFF" width="18" height="2"/>
<rect x="40.5" y="1526.5" fill="#FFFFFF" width="2" height="2"/>
<rect x="43.5" y="1526.5" fill="#FFFFFF" width="2" height="2"/>
<rect x="46.5" y="1526.5" fill="#FFFFFF" width="2" height="2"/>
<rect x="49.5" y="1526.5" fill="#FFFFFF" width="2" height="2"/>
<rect x="52.5" y="1526.5" fill="#FFFFFF" width="2" height="2"/>
<rect x="55.5" y="1526.5" fill="#FFFFFF" width="2" height="2"/>
</svg>
